<svg width="48" height="48" viewBox="0 0 48 48" fill="none" xmlns="http://www.w3.org/2000/svg">
<circle cx="24" cy="24" r="24" transform="rotate(-180 24 24)" fill="white" fill-opacity="0.3"/>
<path d="M18.0602 26.6427L11.997 26.6427C11.193 26.6427 10.4219 26.3513 9.85339 25.8326C9.28486 25.3139 8.96546 24.6103 8.96546 23.8768C8.96546 23.1432 9.28486 22.4397 9.85339 21.9209C10.4219 21.4022 11.193 21.1108 11.997 21.1108L18.0602 21.1108L24.1234 11.43L28.6707 11.43L25.6391 21.1108L31.7023 21.1108L34.7339 18.3449L39.2813 18.3449L36.2497 23.8768L39.2813 29.4086L34.7339 29.4086L31.7023 26.6427L25.6391 26.6427L28.6707 36.3235L24.1234 36.3235L18.0602 26.6427Z" fill="#475B63" stroke="#131E27" stroke-width="2" stroke-linecap="round" stroke-linejoin="round"/>
</svg>
