<svg width="1611" height="937" viewBox="0 0 1610 937" fill="none" xmlns="http://www.w3.org/2000/svg">
<path d="M60.5701 228.508C89.6171 172.686 74.0701 113.808 164.07 105.008C276.57 94.0082 294.07 148.008 341.57 126.508C389.07 105.008 403.57 81.5083 452.57 76.0083C501.57 70.5083 541.07 50.0083 592.07 63.0083C643.07 76.0083 654.07 108.508 744.57 76.0083C835.07 43.5082 873.07 27.0081 951.07 45.0082C1029.07 63.0083 1054.07 125.008 1159.57 94.0082C1265.07 63.0083 1339.57 32.0083 1406.57 63.0083C1473.57 94.0082 1429.57 170.508 1339.07 148.508C1248.57 126.508 1138.07 68.5082 1250.57 19.5082C1363.07 -29.4918 1573.57 32.5082 1597.07 105.008C1620.57 177.508 1603.57 294.008 1578.57 310.008C1553.57 326.008 1411.57 384.008 1431.57 447.508C1451.57 511.008 1553.57 524.008 1566.07 602.008C1578.57 680.008 1646.07 709.008 1566.07 787.008C1486.07 865.008 1464.57 723.508 1357.57 741.508C1250.57 759.508 1290.57 799.508 1198.07 830.508C1105.57 861.508 1075.07 852.008 1007.57 819.508C940.07 787.008 865.57 716.008 800.57 776.008C735.57 836.008 712.07 942.508 641.07 906.508C570.07 870.508 560.57 787.008 613.57 787.008C666.57 787.008 891.07 861.508 809.57 899.508C728.07 937.508 519.07 979.508 341.57 830.508C164.07 681.508 120.07 718.008 127.57 752.508C135.07 787.008 -88.43 710.508 44.07 536.508C150.07 397.308 4.96898 335.362 60.5701 228.508Z" stroke="#131E27" stroke-width="3" stroke-dasharray="20 20"/>
</svg>
